<?xml version="1.0" encoding="UTF-8"?>
<!DOCTYPE svg PUBLIC "-//W3C//DTD SVG 1.1//EN" "http://www.w3.org/Graphics/SVG/1.1/DTD/svg11.dtd">
<!-- Creator: CorelDRAW 2019 (64-Bit) -->
<svg xmlns="http://www.w3.org/2000/svg" xml:space="preserve" width="94.2306mm" height="23.8186mm" version="1.1" style="shape-rendering:geometricPrecision; text-rendering:geometricPrecision; image-rendering:optimizeQuality; fill-rule:evenodd; clip-rule:evenodd"
viewBox="0 0 4392.66 1110.33"
 xmlns:xlink="http://www.w3.org/1999/xlink"
 xmlns:xodm="http://www.corel.com/coreldraw/odm/2003">
 <defs>
  <style type="text/css">
   <![CDATA[
    .str0 {stroke:black;stroke-width:9.32;stroke-miterlimit:22.9256}
    .fil6 {fill:#FEFEFE}
    .fil0 {fill:black;fill-rule:nonzero}
    .fil4 {fill:white;fill-rule:nonzero}
    .fil5 {fill:url(#id0);fill-rule:nonzero}
    .fil3 {fill:url(#id1);fill-rule:nonzero}
    .fil1 {fill:url(#id2);fill-rule:nonzero}
    .fil2 {fill:url(#id3);fill-rule:nonzero}
   ]]>
  </style>
  <linearGradient id="id0" gradientUnits="userSpaceOnUse" x1="555.16" y1="93.21" x2="555.16" y2="1017.12">
   <stop offset="0" style="stop-opacity:1; stop-color:#DA4A00"/>
   <stop offset="0.321569" style="stop-opacity:1; stop-color:#CA2500"/>
   <stop offset="1" style="stop-opacity:1; stop-color:#BA0000"/>
  </linearGradient>
  <linearGradient id="id1" gradientUnits="userSpaceOnUse" xlink:href="#id0" x1="3552.29" y1="503.95" x2="3552.29" y2="788.08">
  </linearGradient>
  <linearGradient id="id2" gradientUnits="userSpaceOnUse" xlink:href="#id0" x1="2871.3" y1="416.73" x2="2871.3" y2="788.08">
  </linearGradient>
  <linearGradient id="id3" gradientUnits="userSpaceOnUse" xlink:href="#id0" x1="3178.85" y1="503.95" x2="3178.85" y2="791.21">
  </linearGradient>
 </defs>
 <g id="Warstwa_x0020_1">
  <metadata id="CorelCorpID_0Corel-Layer"/>
  <polygon class="fil0" points="1567.06,498.2 1567.06,416.73 1292.85,416.73 1292.85,498.2 1384.25,498.2 1384.25,788.08 1475.66,788.08 1475.66,498.2 "/>
  <path class="fil0" d="M1813.06 647.58c0,-54.84 -7.31,-82 -30.82,-107.59 -16.71,-17.76 -44.91,-36.04 -90.36,-36.04 -45.44,0 -73.64,18.28 -90.36,36.04 -23.5,25.59 -30.81,52.75 -30.81,107.59 0,55.36 7.31,82 30.81,107.59 16.71,17.76 44.92,36.04 90.36,36.04 45.44,0 73.64,-18.28 90.36,-36.04 23.5,-25.59 30.82,-52.23 30.82,-107.59zm-85.66 0c0,27.68 -1.57,47.53 -12.54,58.5 -5.22,5.22 -12.54,7.83 -22.98,7.83 -10.45,0 -17.76,-2.61 -22.98,-7.83 -10.96,-10.97 -12.54,-30.82 -12.54,-58.5 0,-27.68 1.57,-47.53 12.54,-58.5 5.23,-5.22 12.54,-7.83 22.98,-7.83 10.45,0 17.76,2.61 22.98,7.83 10.97,10.97 12.54,30.82 12.54,58.5z"/>
  <polygon class="fil0" points="2219.92,788.08 2219.92,416.73 2130.09,416.73 2046.52,580.47 1962.95,416.73 1873.12,416.73 1873.12,788.08 1964.52,788.08 1964.52,610.24 2017.27,701.99 2075.77,701.99 2128.52,610.24 2128.52,788.08 "/>
  <path class="fil0" d="M2522.33 647.58c0,-54.84 -7.31,-82 -30.82,-107.59 -16.71,-17.76 -44.91,-36.04 -90.36,-36.04 -45.44,0 -73.64,18.28 -90.36,36.04 -23.5,25.59 -30.81,52.75 -30.81,107.59 0,55.36 7.31,82 30.81,107.59 16.71,17.76 44.92,36.04 90.36,36.04 45.44,0 73.64,-18.28 90.36,-36.04 23.5,-25.59 30.82,-52.23 30.82,-107.59zm-85.66 0c0,27.68 -1.57,47.53 -12.54,58.5 -5.22,5.22 -12.54,7.83 -22.98,7.83 -10.45,0 -17.76,-2.61 -22.98,-7.83 -10.96,-10.97 -12.54,-30.82 -12.54,-58.5 0,-27.68 1.57,-47.53 12.54,-58.5 5.23,-5.22 12.54,-7.83 22.98,-7.83 10.45,0 17.76,2.61 22.98,7.83 10.97,10.97 12.54,30.82 12.54,58.5z"/>
  <path class="fil0" d="M2662.82 799.05l0 -280.99 -85.65 0 0 274.72c0,10.97 -5.75,17.24 -17.24,17.24l-29.77 0 0 72.07 45.44 0c62.15,0 87.22,-44.39 87.22,-83.04zm0 -320.69l0 -65.29 -85.65 0 0 65.29 85.65 0z"/>
  <path class="fil1" d="M3009.63 602.4c0,-58.41 4.7,-105.76 -38.65,-149.11 -25.59,-25.59 -61.63,-36.56 -100.28,-36.56l-137.89 0 0 371.35 137.89 0c38.65,0 74.69,-10.97 100.28,-36.56 43.35,-43.35 38.65,-90.71 38.65,-149.12zm-91.4 0c0,63.02 -2.62,72.95 -9.92,83.4 -8.36,12.54 -20.89,20.8 -43.88,20.8l-40.22 0 0 -208.4 40.22 0c22.98,0 35.52,8.27 43.88,20.8 7.31,10.45 9.92,20.89 9.92,83.39z"/>
  <path class="fil2" d="M3300.02 647.58c0,-54.84 -7.31,-82 -30.82,-107.59 -16.71,-17.76 -44.91,-36.04 -90.36,-36.04 -45.44,0 -73.64,18.28 -90.36,36.04 -23.5,25.59 -30.81,52.75 -30.81,107.59 0,55.36 7.31,82 30.81,107.59 16.71,17.76 44.92,36.04 90.36,36.04 45.44,0 73.64,-18.28 90.36,-36.04 23.5,-25.59 30.82,-52.23 30.82,-107.59zm-85.66 0c0,27.68 -1.57,47.53 -12.54,58.5 -5.22,5.22 -12.54,7.83 -22.98,7.83 -10.45,0 -17.76,-2.61 -22.98,-7.83 -10.96,-10.97 -12.54,-30.82 -12.54,-58.5 0,-27.68 1.57,-47.53 12.54,-58.5 5.23,-5.22 12.54,-7.83 22.98,-7.83 10.45,0 17.76,2.61 22.98,7.83 10.97,10.97 12.54,30.82 12.54,58.5z"/>
  <path class="fil3" d="M3749.72 788.08l0 -179.67c0,-29.77 -6.79,-56.41 -30.82,-80.43 -15.15,-15.15 -40.74,-24.03 -67.37,-24.03 -32.38,0 -54.84,8.35 -79.39,29.77 -18.28,-20.89 -40.74,-29.77 -68.42,-29.77 -22.46,0 -48.05,8.88 -65.29,26.11l0 -22.98 -83.56 0 0 280.99 85.65 0 0 -168.18c0,-32.38 22.98,-38.65 34.47,-38.65 11.49,0 34.47,6.27 34.47,38.65l0 168.18 85.65 0 0 -168.18c0,-32.38 22.98,-38.65 34.47,-38.65 11.49,0 34.47,6.27 34.47,38.65l0 168.18 85.66 0z"/>
  <polygon class="fil0" points="3903.27,788.08 3903.27,694.07 3809.26,694.07 3809.26,788.08 "/>
  <path class="fil0" d="M4207.77 647.58c0,-41.26 1.57,-90.36 -26.11,-118.04 -16.19,-16.19 -41.26,-25.59 -68.42,-25.59 -29.25,0 -47.53,8.88 -64.76,26.11l0 -22.98 -83.04 0 0 371.87 85.65 0 0 -111.25c15.67,15.67 34.99,23.5 62.68,23.5 27.16,0 51.71,-9.4 67.9,-25.59 27.68,-27.68 26.11,-76.78 26.11,-118.04zm-85.66 0c0,40.74 -3.65,66.33 -35.52,66.33 -31.86,0 -35.52,-25.59 -35.52,-66.33 0,-40.74 3.66,-66.33 35.52,-66.33 31.86,0 35.52,25.59 35.52,66.33z"/>
  <path class="fil0" d="M4392.66 788.08l0 -72.08 -29.77 0c-11.49,0 -17.23,-6.18 -17.23,-17.15l0 -282.12 -85.66 0 0 288.39c0,38.57 25.07,82.96 87.22,82.96l45.44 0z"/>
  <g id="_2383876193760">
   <path class="fil4 str0" d="M1105.66 254.89c0,-61.23 -11.19,-110.97 -33.57,-149.51 -38.85,-67.14 -110.97,-100.71 -216.66,-100.71l-600.55 0c-106,0 -178.11,33.57 -216.65,100.71 -17.1,29.22 -27.36,64.96 -31.4,106.93 -1.56,13.36 -2.18,27.67 -2.18,42.58l0 600.55c0,14.92 0.62,29.22 2.18,42.9 0.62,6.53 1.55,12.74 2.48,19.27 12.74,83 52.84,138.64 120.61,166.61 34.51,14.3 76.16,21.45 124.96,21.45l600.54 0c144.54,0 226.61,-62.79 245.88,-188.06 2.8,-19.27 4.35,-40.1 4.35,-62.17l0 -600.55z"/>
   <path class="fil5" d="M1008.83 926.89c5.42,-18.49 8.29,-39.85 8.29,-63.76l0 -615.94c0,-96.6 -45.59,-147.93 -136.77,-153.35 -5.42,-0.32 -11.16,-0.64 -17.21,-0.64l-615.94 0c-6.06,0 -11.8,0.32 -17.22,0.64 -91.18,5.42 -136.77,56.75 -136.77,153.35l0 615.94c0,23.91 2.87,45.26 8.61,63.76 18.17,60.26 66.63,90.23 145.38,90.23l615.94 0c78.74,0 127.2,-29.97 145.69,-90.23z"/>
  </g>
  <g id="_2383876197376">
   <polygon class="fil6" points="208.41,301.96 209.68,302.61 545.02,133.75 893.55,309.25 711.92,400.7 545.02,316.65 391.2,394.11 391.46,394.24 391.46,894.73 208.41,802.45 "/>
   <polygon class="fil6" points="590.44,976.58 901.92,821.08 901.92,628 590.44,783.5 "/>
   <polygon class="fil6" points="590.44,718.34 901.92,562.85 901.92,369.77 590.44,525.27 "/>
  </g>
 </g>
</svg>
