<?xml version="1.0" standalone="no"?>
<!DOCTYPE svg PUBLIC "-//W3C//DTD SVG 20010904//EN"
 "http://www.w3.org/TR/2001/REC-SVG-20010904/DTD/svg10.dtd">
<svg version="1.0" xmlns="http://www.w3.org/2000/svg"
 width="700.000000pt" height="700.000000pt" viewBox="0 0 700.000000 700.000000"
 preserveAspectRatio="xMidYMid meet">
<metadata>
Created by potrace 1.11, written by Peter Selinger 2001-2013
</metadata>
<g transform="translate(0.000000,700.000000) scale(0.100000,-0.100000)"
fill="#000000" stroke="none">
<path d="M1419 6996 c-2 -2 -44 -7 -94 -11 -49 -4 -92 -8 -95 -10 -3 -1 -27
-6 -53 -9 -27 -4 -100 -20 -163 -36 -174 -45 -298 -100 -449 -199 -137 -90
-289 -263 -373 -426 -64 -123 -131 -319 -146 -423 -3 -24 -7 -46 -10 -50 -2
-4 -7 -34 -11 -67 -3 -33 -10 -89 -15 -125 -10 -74 -8 -4282 2 -4320 4 -14 11
-57 17 -96 10 -68 27 -149 50 -240 6 -23 24 -77 40 -122 142 -384 417 -643
820 -771 62 -20 188 -50 244 -57 15 -2 39 -6 55 -9 15 -3 63 -8 107 -12 101
-10 4200 -10 4316 -1 47 4 105 11 130 17 24 5 62 12 84 16 116 17 275 70 400
133 357 177 586 490 676 922 11 51 22 117 25 145 3 27 8 61 12 75 10 38 12
4266 2 4335 -5 33 -11 82 -15 109 -54 423 -251 770 -553 974 -118 81 -288 155
-447 196 -71 18 -82 20 -280 53 -42 7 -4268 16 -4276 9z"/>
</g>
</svg>
